<svg width="18" height="18" viewBox="0 0 18 18" fill="none" xmlns="http://www.w3.org/2000/svg">
<path fill-rule="evenodd" clip-rule="evenodd" d="M4.5 3C3.67157 3 3 3.67157 3 4.5V13.5C3 14.3284 3.67157 15 4.5 15H13.5C14.3284 15 15 14.3284 15 13.5V7.03125C15 6.20282 14.3284 5.53125 13.5 5.53125H9.80278C9.05048 5.53125 8.34796 5.15527 7.93066 4.52933L7.13376 3.33397C6.99466 3.12533 6.76049 3 6.50972 3H4.5ZM1.5 4.5C1.5 2.84315 2.84315 1.5 4.5 1.5H6.50972C7.26202 1.5 7.96454 1.87598 8.38184 2.50192L9.17874 3.69727C9.31784 3.90592 9.55201 4.03125 9.80278 4.03125H13.5C15.1569 4.03125 16.5 5.3744 16.5 7.03125V13.5C16.5 15.1569 15.1569 16.5 13.5 16.5H4.5C2.84315 16.5 1.5 15.1569 1.5 13.5V4.5Z" fill="#5B5B5B"/>
</svg>
